<svg id="svg" version="1.1" xmlns="http://www.w3.org/2000/svg" xmlns:xlink="http://www.w3.org/1999/xlink" width="400" height="82.1515892420538" viewBox="0, 0, 400,82.1515892420538"><g id="svgg"><path id="path0" d="M121.851 19.129 C 110.796 20.968,103.648 31.315,104.276 44.570 L 104.528 49.878 99.305 49.878 L 94.082 49.878 92.029 46.269 C 89.504 41.831,89.504 41.825,92.039 40.532 C 103.652 34.607,99.616 19.577,86.382 19.465 C 79.002 19.403,70.833 19.926,70.270 20.496 C 69.538 21.239,71.023 22.494,72.634 22.494 C 75.205 22.494,75.333 23.228,75.192 37.211 L 75.061 50.122 73.350 50.043 C 72.408 49.999,67.512 49.944,62.469 49.921 L 53.301 49.878 53.301 44.988 C 53.301 38.456,53.591 38.142,59.626 38.142 C 64.822 38.142,66.501 38.645,66.511 40.208 C 66.521 41.714,67.237 42.741,68.057 42.427 C 68.722 42.172,68.914 32.565,68.268 31.919 C 67.689 31.340,66.504 32.324,66.504 33.383 C 66.504 35.392,65.664 35.697,60.125 35.697 C 53.312 35.697,53.301 35.685,53.301 28.750 C 53.301 22.230,53.075 22.424,60.461 22.600 L 66.259 22.738 66.773 24.328 C 67.500 26.579,68.226 27.208,69.180 26.416 C 70.015 25.723,69.766 21.362,68.824 20.171 C 68.050 19.193,45.015 19.305,43.736 20.293 C 42.520 21.234,43.840 22.494,46.042 22.494 C 48.267 22.494,48.411 23.398,48.411 37.371 L 48.411 50.357 25.061 50.484 C 9.905 50.567,1.711 50.783,1.711 51.100 C 1.711 51.418,9.905 51.634,25.061 51.716 L 48.411 51.843 48.411 54.517 L 48.411 57.190 39.731 57.324 C 32.401 57.436,31.051 57.571,31.051 58.191 C 31.051 58.810,32.405 58.945,39.761 59.058 L 48.471 59.192 48.319 60.769 C 48.191 62.092,47.827 62.505,46.069 63.321 C 43.471 64.527,43.245 66.350,45.721 66.127 C 46.528 66.054,48.678 65.864,50.498 65.704 C 52.431 65.535,54.752 65.652,56.077 65.985 C 59.682 66.893,60.254 64.795,56.781 63.405 C 54.773 62.602,54.080 61.924,53.572 60.269 L 53.235 59.169 64.270 59.169 L 75.306 59.169 75.306 60.782 C 75.306 62.716,74.568 63.567,72.885 63.577 C 71.176 63.587,70.286 64.243,70.494 65.340 C 70.724 66.551,73.119 66.784,75.854 65.859 C 77.660 65.249,78.200 65.249,80.005 65.864 C 83.113 66.923,85.330 66.579,85.330 65.037 C 85.330 63.996,85.075 63.790,83.619 63.654 C 81.436 63.449,80.196 62.328,80.196 60.560 L 80.196 59.169 86.919 59.174 L 93.643 59.179 95.408 62.031 C 97.373 65.207,100.728 67.346,102.893 66.802 C 105.187 66.227,104.885 63.981,102.431 63.365 C 101.687 63.179,100.858 62.327,100.241 61.117 L 99.247 59.169 104.222 59.169 L 109.196 59.169 111.810 61.640 C 119.548 68.959,133.272 68.951,141.021 61.623 C 143.607 59.177,143.626 59.169,146.908 59.169 L 150.200 59.169 149.884 60.607 C 148.114 68.664,167.680 69.040,172.968 61.051 L 174.213 59.169 180.505 59.169 C 186.538 59.169,186.797 59.210,186.797 60.179 C 186.797 61.761,185.985 62.893,184.371 63.562 C 183.034 64.116,182.228 65.920,183.252 66.068 C 186.822 66.584,195.591 66.252,195.845 65.591 C 196.145 64.807,194.936 63.570,193.870 63.570 C 192.905 63.570,191.687 61.843,191.687 60.475 L 191.687 59.169 200.244 59.169 L 208.802 59.169 208.802 60.391 C 208.802 61.833,207.231 63.570,205.928 63.570 C 204.453 63.570,203.588 64.922,204.487 65.821 C 205.106 66.441,205.586 66.466,207.521 65.978 C 209.508 65.478,214.006 65.537,217.848 66.113 C 220.052 66.443,219.278 64.270,216.862 63.348 C 214.796 62.559,213.692 61.263,213.692 59.626 C 213.692 59.356,218.103 59.169,224.450 59.169 C 230.367 59.169,235.207 59.334,235.206 59.535 C 235.200 60.749,233.113 63.051,231.550 63.566 C 230.170 64.022,229.807 64.379,229.923 65.168 C 230.114 66.456,240.181 66.849,241.211 65.607 C 241.802 64.896,240.578 63.570,239.331 63.570 C 238.238 63.570,237.556 62.188,237.893 60.656 L 238.220 59.169 250.662 59.169 L 263.105 59.169 263.582 60.423 C 264.256 62.197,263.425 63.461,261.324 63.855 C 259.545 64.189,258.583 65.350,259.577 65.965 C 259.879 66.152,262.916 66.259,266.325 66.203 L 272.524 66.102 272.657 64.857 C 272.751 63.973,272.507 63.523,271.813 63.303 C 270.927 63.022,268.955 60.427,268.950 59.535 C 268.949 59.334,270.943 59.169,273.381 59.169 L 277.813 59.169 277.659 60.752 C 277.547 61.914,277.089 62.596,275.936 63.319 C 272.566 65.431,273.663 66.259,279.830 66.259 C 284.944 66.259,285.330 66.193,285.330 65.312 C 285.330 64.637,284.840 64.244,283.619 63.943 C 281.598 63.444,280.196 61.967,280.196 60.337 L 280.196 59.169 290.913 59.169 L 301.630 59.169 304.392 63.111 C 308.085 68.380,308.856 68.060,307.704 61.736 L 307.237 59.169 312.593 59.169 L 317.949 59.169 320.321 61.301 C 328.436 68.597,341.946 68.465,349.804 61.012 L 351.728 59.189 361.561 59.056 C 369.916 58.944,371.394 58.814,371.394 58.191 C 371.394 57.565,369.825 57.438,360.734 57.325 L 350.074 57.194 350.220 54.391 L 350.367 51.589 374.817 51.345 C 390.751 51.185,399.224 50.930,399.144 50.611 C 399.066 50.296,390.652 50.077,375.454 49.995 C 359.845 49.911,351.780 49.697,351.572 49.361 C 351.123 48.634,337.752 48.601,337.511 49.327 C 337.098 50.565,319.434 50.040,319.024 48.778 C 318.314 46.595,318.634 37.523,319.528 34.481 C 323.751 20.109,339.748 17.296,345.979 29.829 C 348.317 34.531,349.346 34.152,349.070 28.692 C 348.850 24.324,348.260 23.472,344.084 21.483 C 326.922 13.308,309.239 27.924,312.837 47.311 L 313.314 49.878 310.202 49.878 L 307.090 49.878 307.090 37.386 L 307.090 24.894 308.291 23.694 C 308.951 23.034,310.038 22.494,310.707 22.494 C 312.110 22.494,312.817 21.668,312.061 20.912 C 311.350 20.201,300.341 20.077,299.763 20.773 C 299.070 21.608,299.841 22.324,301.828 22.689 C 304.565 23.192,304.645 23.612,304.645 37.376 L 304.645 49.878 302.964 49.878 C 301.336 49.878,301.093 49.603,295.303 41.198 C 285.575 27.078,281.731 21.692,280.868 20.976 C 279.909 20.180,273.274 19.948,272.784 20.694 C 272.183 21.607,272.960 22.494,274.361 22.494 C 277.586 22.494,277.751 23.212,277.751 37.256 L 277.751 49.878 271.271 49.877 L 264.792 49.876 260.200 38.508 C 253.888 22.880,252.380 19.644,251.246 19.284 C 249.893 18.855,249.636 19.308,249.610 22.168 C 249.591 24.232,248.643 26.979,244.433 37.164 L 239.279 49.633 226.486 49.764 L 213.692 49.894 213.692 44.495 C 213.692 38.064,213.609 38.142,220.461 38.142 C 225.263 38.142,226.734 38.777,226.985 40.959 C 227.077 41.755,227.437 42.298,227.873 42.298 C 228.478 42.298,228.606 41.402,228.606 37.164 C 228.606 31.641,227.841 30.256,226.715 33.741 L 226.161 35.452 220.903 35.591 C 213.529 35.786,213.692 35.932,213.692 29.138 C 213.692 25.231,213.877 23.438,214.317 23.073 C 214.819 22.656,221.241 22.308,225.527 22.464 C 226.032 22.482,226.751 23.377,227.353 24.738 C 228.733 27.859,229.598 27.367,229.534 23.496 C 229.501 21.457,229.257 20.296,228.801 20.008 C 227.486 19.175,204.606 19.457,203.895 20.314 C 203.048 21.335,203.834 22.067,206.189 22.449 C 208.673 22.853,208.696 22.988,208.753 37.531 L 208.802 49.878 200.244 49.878 L 191.687 49.878 191.694 37.775 C 191.702 24.210,191.844 23.499,194.673 22.795 C 197.156 22.177,199.031 23.198,200.214 25.814 C 200.833 27.183,201.426 27.855,201.926 27.752 C 202.954 27.539,202.805 22.383,201.723 20.731 L 200.955 19.560 189.242 19.560 C 175.688 19.560,176.263 19.338,175.960 24.694 C 175.751 28.404,177.183 28.997,178.322 25.672 C 179.170 23.196,180.121 22.494,182.625 22.494 C 186.864 22.494,186.797 22.261,186.797 36.947 L 186.797 49.878 180.544 49.878 L 174.291 49.878 172.205 46.706 C 170.659 44.354,168.369 42.077,163.352 37.902 C 154.260 30.337,153.051 27.231,157.789 23.616 C 162.458 20.056,168.967 22.158,169.952 27.545 C 170.698 31.626,172.536 30.284,172.315 25.820 C 171.828 16.020,153.761 17.015,151.075 26.990 C 149.614 32.414,151.826 36.157,160.636 43.164 C 164.777 46.458,167.726 49.116,167.726 49.554 C 167.726 49.732,163.214 49.878,157.699 49.878 L 147.672 49.878 147.967 45.844 C 149.204 28.920,137.145 16.584,121.851 19.129 M133.097 23.111 C 139.499 26.863,143.829 38.877,142.100 48.094 L 141.765 49.878 126.172 49.878 C 108.049 49.878,110.025 50.727,109.965 42.911 C 109.890 33.086,113.530 25.767,120.049 22.640 C 123.539 20.965,129.822 21.192,133.097 23.111 M87.376 22.525 C 95.933 25.758,94.312 39.199,85.349 39.345 C 81.569 39.406,81.017 40.157,83.273 42.168 C 84.258 43.047,85.827 45.141,86.760 46.822 L 88.455 49.878 85.548 49.932 C 83.949 49.962,82.145 50.011,81.540 50.041 L 80.440 50.095 80.310 36.721 C 80.218 27.263,80.343 23.150,80.736 22.676 C 81.405 21.870,85.403 21.779,87.376 22.525 M254.647 38.509 C 256.580 43.282,258.301 47.573,258.473 48.044 C 258.760 48.833,258.247 48.900,251.854 48.900 C 247.822 48.900,244.510 49.121,243.936 49.428 C 243.393 49.719,242.830 49.839,242.685 49.694 C 242.463 49.472,248.677 33.259,249.971 30.685 C 250.745 29.146,251.093 29.728,254.647 38.509 M281.766 30.685 C 282.805 31.879,294.866 49.319,294.866 49.627 C 294.866 49.765,291.565 49.878,287.531 49.878 L 280.196 49.878 280.196 39.853 C 280.196 29.891,280.340 29.045,281.766 30.685 M298.492 54.558 L 300.254 57.213 290.225 57.213 L 280.196 57.213 280.196 54.536 L 280.196 51.859 287.897 51.724 C 297.210 51.561,296.349 51.331,298.492 54.558 M304.645 51.997 C 304.645 53.012,304.067 53.346,303.346 52.748 C 302.398 51.961,302.539 51.345,303.667 51.345 C 304.205 51.345,304.645 51.638,304.645 51.997 M314.914 54.279 L 316.395 57.213 311.743 57.213 L 307.090 57.213 307.090 54.605 C 307.090 51.369,307.116 51.345,310.588 51.345 L 313.433 51.345 314.914 54.279 M344.282 51.940 C 345.051 52.224,345.232 52.762,345.232 54.752 L 345.232 57.213 333.749 57.213 L 322.266 57.213 321.035 54.784 C 320.358 53.448,319.804 52.106,319.804 51.802 C 319.804 51.182,342.578 51.310,344.282 51.940 M75.306 54.523 L 75.306 57.213 64.303 57.213 L 53.301 57.213 53.301 54.849 C 53.301 51.658,52.640 51.834,64.629 51.834 L 75.306 51.834 75.306 54.523 M91.006 54.279 C 91.742 55.489,92.361 56.644,92.382 56.846 C 92.403 57.048,89.670 57.213,86.308 57.213 L 80.196 57.213 80.196 54.506 L 80.196 51.798 84.932 51.938 L 89.669 52.078 91.006 54.279 M106.631 54.529 L 107.883 57.213 102.964 57.206 L 98.044 57.199 96.699 54.760 C 95.960 53.419,95.355 52.212,95.355 52.078 C 95.355 51.944,97.610 51.836,100.367 51.840 L 105.379 51.846 106.631 54.529 M141.320 52.557 C 141.320 52.955,140.966 54.166,140.534 55.247 L 139.747 57.213 126.154 57.213 L 112.561 57.213 111.782 54.925 C 111.353 53.667,111.002 52.457,111.002 52.236 C 111.002 52.015,117.824 51.834,126.161 51.834 C 139.218 51.834,141.320 51.934,141.320 52.557 M169.863 52.934 C 170.025 53.539,170.161 54.749,170.164 55.623 L 170.171 57.213 161.424 57.213 L 152.676 57.213 152.364 55.548 C 152.037 53.804,151.193 53.128,150.148 53.774 C 149.734 54.029,149.640 54.664,149.864 55.685 L 150.200 57.213 147.431 57.213 C 145.908 57.213,144.735 57.047,144.825 56.844 C 144.914 56.641,145.403 55.430,145.910 54.154 L 146.832 51.834 158.200 51.834 L 169.568 51.834 169.863 52.934 M186.797 54.523 L 186.797 57.213 180.685 57.213 L 174.572 57.213 174.572 54.523 L 174.572 51.834 180.685 51.834 L 186.797 51.834 186.797 54.523 M208.802 54.523 L 208.802 57.213 200.244 57.213 L 191.687 57.213 191.687 54.523 L 191.687 51.834 200.244 51.834 L 208.802 51.834 208.802 54.523 M237.872 52.891 C 237.687 53.473,237.230 54.683,236.855 55.581 L 236.173 57.213 224.932 57.213 L 213.692 57.213 213.692 54.523 L 213.692 51.834 225.950 51.834 L 238.208 51.834 237.872 52.891 M260.979 54.034 C 262.856 57.350,263.301 57.213,250.656 57.213 L 239.210 57.213 240.265 54.515 L 241.320 51.818 250.596 51.948 L 259.872 52.078 260.979 54.034 M277.751 54.540 L 277.751 57.247 272.798 57.108 L 267.845 56.968 266.713 54.401 L 265.581 51.834 271.666 51.834 L 277.751 51.834 277.751 54.540 M136.985 60.322 C 132.352 65.253,121.907 65.737,116.079 61.292 C 113.415 59.260,113.853 59.169,126.247 59.169 L 138.068 59.169 136.985 60.322 M169.193 59.680 C 169.193 59.961,168.641 60.743,167.966 61.418 C 164.162 65.223,157.271 64.894,154.136 60.758 L 152.931 59.169 161.062 59.169 C 166.392 59.169,169.193 59.345,169.193 59.680 M344.743 59.572 C 344.743 63.137,333.861 65.059,328.506 62.439 C 322.323 59.414,322.765 59.169,334.399 59.169 C 340.088 59.169,344.743 59.350,344.743 59.572 " stroke="none" fill="#a9a9a9" fill-rule="evenodd"></path></g></svg>